<?xml version="1.0" encoding="utf-8"?>
<!-- Generator: Adobe Illustrator 16.0.0, SVG Export Plug-In . SVG Version: 6.00 Build 0)  -->
<!DOCTYPE svg PUBLIC "-//W3C//DTD SVG 1.1//EN" "http://www.w3.org/Graphics/SVG/1.1/DTD/svg11.dtd">
<svg version="1.1" id="Capa_1" xmlns="http://www.w3.org/2000/svg" xmlns:xlink="http://www.w3.org/1999/xlink" x="0px" y="0px"
	 width="26.471px" height="26.471px" viewBox="0 0 26.471 26.471" enable-background="new 0 0 26.471 26.471" xml:space="preserve">
<g>
	<path fill="#FFFFFF" d="M26.077,10.292c0-1.783-0.898-3.42-2.352-4.389c-0.421-2.335-2.468-4.111-4.921-4.111
		c-0.071,0-0.145,0.002-0.217,0.005C17.651,0.668,16.265,0,14.765,0c-1.07,0-2.105,0.351-2.96,0.985
		c-0.471-0.129-0.951-0.193-1.436-0.193c-1.962,0-3.769,1.045-4.774,2.687C2.681,3.753,0.394,6.212,0.394,9.195
		c0,1.697,0.759,3.306,2.053,4.393c0.76,1.817,2.515,3.007,4.513,3.007c0.257,0,0.517-0.021,0.775-0.066
		c0.655,0.453,1.435,0.701,2.238,0.701c0.189,0,0.378-0.014,0.563-0.039c0.651,1.287,1.821,2.453,2.966,3.593
		c1.062,1.057,2.157,2.149,2.543,3.075l1.086,2.613l1.553-2.367c1.18-1.797,0.986-3.713,0.369-5.246
		c0.05-0.021,0.098-0.045,0.146-0.068c0.354,0.099,0.717,0.148,1.085,0.148c2.288,0,4.15-1.861,4.15-4.15
		c0-0.216-0.018-0.43-0.053-0.643C25.448,13.161,26.077,11.768,26.077,10.292z M22.628,13.578c0.188,0.362,0.305,0.771,0.305,1.21
		c0,1.465-1.188,2.65-2.65,2.65c-0.456,0-0.879-0.125-1.253-0.328c-0.461,0.389-1.048,0.632-1.695,0.632
		c-0.271,0-0.525-0.054-0.771-0.127c0,0,2.631,2.979,0.867,5.667c-0.93-2.236-4.243-4.411-5.461-6.598
		c0.515-0.328,0.958-0.766,1.411-1.229c1.448-1.483,2.945-3.018,7.698-1.396l0.483-1.42c-5.646-1.924-7.731,0.208-9.255,1.769
		c-0.311,0.317-0.598,0.604-0.885,0.831c-0.407,0.301-0.902,0.49-1.448,0.49c-0.742,0-1.398-0.334-1.852-0.853
		c-0.364,0.134-0.753,0.218-1.163,0.218c-1.486,0-2.729-0.961-3.196-2.289l0.011-0.002c-0.221-1.088,0.072-1.989,0.848-2.603
		c1.166-0.928,3.09-0.988,4.896-0.16l0.625-1.364c-2.318-1.058-4.852-0.923-6.455,0.35c-0.682,0.541-1.131,1.252-1.342,2.06
		C2.06,10.517,1.894,9.877,1.894,9.195c0-2.343,1.899-4.241,4.243-4.241c0.132,0,0.255,0.026,0.384,0.039
		c0.578-1.572,2.076-2.7,3.85-2.7c0.637,0,1.231,0.157,1.771,0.415C12.782,1.973,13.714,1.5,14.765,1.5
		c0.828,0,1.582,0.294,2.179,0.776c-0.714,0.417-1.254,0.969-1.58,1.67C15.339,4,15.326,4.055,15.304,4.108l-0.002-0.001
		c-0.391,0.737-1.192,1.34-1.999,1.5c-0.394,0.078-0.968,0.085-1.464-0.324l-0.957,1.153c0.564,0.469,1.26,0.713,2.007,0.713
		c0.231,0,0.468-0.022,0.706-0.07c0.513-0.103,1.004-0.31,1.453-0.592c0.104,0.751,0.334,1.423,0.528,1.884l1.382-0.585
		c-0.248-0.583-0.767-2.064-0.234-3.207c0.234-0.505,0.671-0.896,1.285-1.178c0.256-0.063,0.521-0.11,0.797-0.11
		c1.935,0,3.5,1.566,3.5,3.5c0,0.013-0.004,0.024-0.004,0.038c1.338,0.581,2.275,1.911,2.275,3.462
		C24.577,11.712,23.784,12.933,22.628,13.578z"/>
</g>
</svg>
