<?xml version="1.0" encoding="utf-8"?>
<!-- Generator: Adobe Illustrator 16.0.0, SVG Export Plug-In . SVG Version: 6.00 Build 0)  -->
<!DOCTYPE svg PUBLIC "-//W3C//DTD SVG 1.1//EN" "http://www.w3.org/Graphics/SVG/1.1/DTD/svg11.dtd">
<svg version="1.1" id="Layer_1" xmlns="http://www.w3.org/2000/svg" xmlns:xlink="http://www.w3.org/1999/xlink" x="0px" y="0px"
	 width="302.027px" height="82.66px" viewBox="0 0 302.027 82.66" enable-background="new 0 0 302.027 82.66" xml:space="preserve">
<g>
	<path fill-rule="evenodd" clip-rule="evenodd" fill="#FFFFFF" d="M197.147,39.819c3.873-4.364,8.257-7.082,13.552-8.344
		c13.023-3.106,26.654,5.562,29.292,18.684c2.768,13.763-6.252,27.026-19.805,29.121c-15.345,2.372-28.45-8.859-28.45-24.38
		c0-15.666,0.01-31.332-0.015-46.998c-0.002-1.38,0.292-2.505,1.649-3.088c1.89-0.811,3.755,0.489,3.766,2.683
		c0.028,6.062,0.011,12.125,0.011,18.187C197.147,30.238,197.147,34.794,197.147,39.819z M234.984,55.367
		c0.009-10.512-8.476-19.045-18.913-19.023c-10.329,0.021-18.911,8.594-18.924,18.905c-0.013,10.305,8.582,18.918,18.894,18.934
		C226.439,74.196,234.978,65.716,234.984,55.367z"/>
	<path fill-rule="evenodd" clip-rule="evenodd" fill="#FFFFFF" d="M285.153,51.839c0.107,4.439-0.335,9.618,0.625,14.734
		c0.914,4.865,3.021,6.772,7.992,7.223c1.91,0.173,3.833,0.199,5.747,0.329c1.552,0.105,2.406,0.974,2.502,2.524
		c0.098,1.569-0.74,2.752-2.194,2.801c-4.804,0.16-9.658,0.186-13.927-2.544c-4.14-2.647-5.439-6.892-5.836-11.427
		c-0.749-8.568-0.174-17.166-0.329-25.749c-0.013-0.661-0.05-1.326,0.009-1.981c0.079-0.87-0.26-1.154-1.119-1.117
		c-1.379,0.059-2.764,0.052-4.145,0.005c-1.808-0.062-2.983-1.137-3.031-2.686c-0.045-1.504,1.142-2.719,2.896-2.831
		c1.256-0.08,2.533-0.127,3.779,0.008c1.447,0.156,1.646-0.472,1.635-1.732c-0.055-7.208-0.034-14.417-0.021-21.624
		c0.005-2.143,1.143-3.302,3.01-3.146c1.549,0.129,2.398,1.147,2.402,2.992c0.012,7.208,0.049,14.416-0.031,21.624
		c-0.017,1.503,0.383,1.937,1.891,1.895c3.84-0.107,7.688-0.053,11.531-0.029c2.341,0.015,3.461,0.915,3.487,2.709
		c0.028,1.872-1.155,2.828-3.542,2.832c-3.904,0.006-7.81,0.07-11.712-0.034c-1.401-0.037-1.676,0.421-1.65,1.72
		C285.205,42.594,285.153,46.86,285.153,51.839z"/>
	<path fill-rule="evenodd" clip-rule="evenodd" fill="#FFFFFF" d="M155.995,51.506c0-5.067-0.039-9.27,0.026-13.471
		c0.017-1.114-0.301-1.487-1.412-1.411c-1.315,0.089-2.643,0.062-3.961,0.011c-1.804-0.069-2.886-1.143-2.881-2.764
		c0.006-1.575,0.974-2.609,2.72-2.731c1.315-0.092,2.646-0.118,3.959-0.014c1.313,0.104,1.582-0.433,1.573-1.643
		c-0.05-7.203-0.005-14.407-0.04-21.61c-0.008-1.637,0.474-2.866,2.183-3.222c1.871-0.39,3.275,0.904,3.295,3.033
		c0.036,3.842,0.011,7.684,0.011,11.526c0,3.481,0.055,6.964-0.029,10.443c-0.03,1.214,0.362,1.492,1.511,1.473
		c3.901-0.067,7.804-0.024,11.706-0.027c0.908-0.001,1.826,0.009,2.569,0.613c0.906,0.737,1.335,1.679,0.987,2.865
		c-0.44,1.499-1.537,2.061-3.001,2.063c-4.081,0.007-8.163,0.038-12.245-0.021c-1.108-0.016-1.54,0.189-1.529,1.44
		c0.062,7.743,0.021,15.487,0.038,23.23c0.004,1.985,0.29,3.949,0.775,5.87c1.077,4.251,3.462,6.27,7.849,6.649
		c1.789,0.155,3.588,0.219,5.383,0.306c1.665,0.081,2.812,1.116,2.858,2.609c0.045,1.453-1.128,2.734-2.713,2.791
		c-3.004,0.108-6.009,0.005-8.94-0.726c-5.758-1.436-9.307-5.91-10.279-12.689C155.667,60.958,156.186,55.792,155.995,51.506z"/>
	<path fill-rule="evenodd" clip-rule="evenodd" fill="#FFFFFF" d="M98.036,57.43c0,6.244,0.004,12.488-0.001,18.732
		c-0.003,2.096-0.971,3.313-2.648,3.369c-1.75,0.059-2.816-1.188-2.818-3.383C92.56,63.6,92.535,51.052,92.601,38.504
		c0.008-1.547-0.313-2.195-1.958-1.998c-1.184,0.142-2.401,0.08-3.598,0.009c-1.589-0.094-2.602-0.95-2.688-2.578
		c-0.087-1.631,0.821-2.646,2.406-2.827c1.424-0.163,2.879-0.175,4.312-0.094c1.178,0.066,1.523-0.296,1.52-1.494
		c-0.011-3.655-0.182-7.313,0.361-10.962C94.259,9.82,99.683,4.916,108.513,4.63c1.14-0.037,2.282-0.023,3.422-0.003
		c1.832,0.031,2.95,1.036,2.979,2.646c0.029,1.621-1.196,2.707-3.075,2.767c-1.438,0.046-2.889,0.026-4.308,0.218
		c-5.758,0.777-8.292,3.38-9.138,9.126c-0.519,3.527-0.266,7.069-0.376,10.604c-0.029,0.996,0.474,1.018,1.211,1.014
		c3.782-0.021,7.565-0.011,11.348-0.008c0.54,0,1.086-0.02,1.618,0.048c1.802,0.232,2.84,1.386,2.717,2.968
		c-0.115,1.483-1.243,2.5-2.961,2.514c-4.022,0.034-8.047,0.081-12.066-0.024c-1.467-0.039-1.912,0.298-1.887,1.84
		C98.093,44.701,98.036,51.066,98.036,57.43z"/>
	<path fill-rule="evenodd" clip-rule="evenodd" fill="#FFFFFF" d="M133.918,55.325c0,6.836,0.004,13.672-0.006,20.508
		c-0.002,0.593,0,1.213-0.161,1.775c-0.355,1.229-1.267,1.872-2.523,1.917c-1.189,0.043-2.063-0.539-2.555-1.627
		c-0.354-0.787-0.319-1.635-0.319-2.477c0.004-13.372,0.002-26.744,0.004-40.116c0-2.861,0.86-4.186,2.744-4.242
		c1.962-0.059,2.815,1.243,2.816,4.293C133.919,42.013,133.918,48.669,133.918,55.325z"/>
	<path fill-rule="evenodd" clip-rule="evenodd" fill="#FFFFFF" d="M258.775,55.255c0,6.965,0.004,13.929-0.001,20.894
		c-0.001,2.216-1.018,3.438-2.788,3.38c-1.67-0.054-2.619-1.264-2.619-3.387c-0.003-13.929-0.004-27.858,0.001-41.787
		c0.001-2.116,0.995-3.303,2.713-3.301c1.72,0.002,2.69,1.18,2.692,3.307C258.779,41.326,258.775,48.291,258.775,55.255z"/>
	<path fill-rule="evenodd" clip-rule="evenodd" fill="#48C2C5" d="M131.116,21.927c-3.109-0.023-5.382-2.389-5.334-5.556
		c0.044-3.011,2.405-5.288,5.456-5.261c3.088,0.027,5.418,2.45,5.359,5.57C136.543,19.679,134.17,21.95,131.116,21.927z"/>
	<path fill-rule="evenodd" clip-rule="evenodd" fill="#48C2C5" d="M256.134,11.11c2.969,0.025,5.39,2.435,5.407,5.381
		c0.02,3.054-2.419,5.455-5.52,5.436c-3.005-0.019-5.377-2.369-5.413-5.363C250.572,13.561,253.081,11.084,256.134,11.11z"/>
	<path fill-rule="evenodd" clip-rule="evenodd" fill="#FFFFFF" d="M55.679,47.152c-2.433-0.004-4.5-2.101-4.44-4.506
		c0.059-2.356,2.071-4.319,4.437-4.325c2.347-0.007,4.388,1.978,4.448,4.322C60.185,45.049,58.108,47.156,55.679,47.152z"/>
	<path fill-rule="evenodd" clip-rule="evenodd" fill="#FFFFFF" d="M29.867,47.146c-2.453-0.095-4.404-2.22-4.267-4.646
		c0.135-2.376,2.192-4.262,4.551-4.171c2.392,0.092,4.322,2.106,4.277,4.462C34.382,45.244,32.29,47.241,29.867,47.146z"/>
	<path fill-rule="evenodd" clip-rule="evenodd" fill="#FFFFFF" d="M21.573,42.773c-0.015,2.379-1.968,4.349-4.34,4.377
		c-2.454,0.03-4.476-1.994-4.449-4.451c0.027-2.476,2.072-4.453,4.526-4.378C19.69,38.393,21.588,40.375,21.573,42.773z"/>
	<path fill-rule="evenodd" clip-rule="evenodd" fill="#48C2C5" d="M29.892,21.517c-2.455-0.077-4.415-2.193-4.289-4.632
		c0.124-2.38,2.176-4.284,4.54-4.212c2.348,0.072,4.354,2.143,4.317,4.46C34.423,19.554,32.3,21.591,29.892,21.517z"/>
	<path fill-rule="evenodd" clip-rule="evenodd" fill="#48C2C5" d="M29.961,51.164c2.465-0.035,4.512,1.977,4.503,4.428
		c-0.008,2.313-2.025,4.341-4.388,4.411c-2.3,0.068-4.4-1.946-4.477-4.294C25.519,53.244,27.482,51.199,29.961,51.164z"/>
	<path fill-rule="evenodd" clip-rule="evenodd" fill="#48C2C5" d="M21.582,55.503c0.027,2.48-1.964,4.496-4.437,4.49
		c-2.33-0.005-4.339-2.006-4.401-4.383c-0.064-2.42,1.988-4.46,4.472-4.447C19.629,51.177,21.555,53.09,21.582,55.503z"/>
	<path fill-rule="evenodd" clip-rule="evenodd" fill="#FFFFFF" d="M38.504,42.696c0.016-2.431,1.895-4.342,4.296-4.37
		c2.468-0.028,4.437,1.955,4.419,4.45c-0.018,2.398-1.938,4.342-4.323,4.375C40.427,47.187,38.487,45.219,38.504,42.696z"/>
	<path fill-rule="evenodd" clip-rule="evenodd" fill="#FFFFFF" d="M0.001,42.658c0.03-2.424,1.943-4.338,4.333-4.334
		c2.492,0.004,4.415,1.975,4.38,4.49c-0.034,2.419-1.956,4.335-4.353,4.338C1.908,47.155-0.03,45.158,0.001,42.658z"/>
	<path fill-rule="evenodd" clip-rule="evenodd" fill="#FFFFFF" d="M47.219,55.498c0.024,2.492-1.928,4.467-4.405,4.455
		c-2.402-0.012-4.288-1.913-4.311-4.345c-0.024-2.559,1.847-4.454,4.379-4.434C45.313,51.194,47.195,53.069,47.219,55.498z"/>
	<path fill-rule="evenodd" clip-rule="evenodd" fill="#48C2C5" d="M17.285,34.23c-2.595,0.021-4.524-1.807-4.543-4.303
		c-0.018-2.42,2.041-4.426,4.516-4.398c2.394,0.026,4.307,1.961,4.323,4.371C21.598,32.365,19.768,34.21,17.285,34.23z"/>
	<path fill-rule="evenodd" clip-rule="evenodd" fill="#FFFFFF" d="M42.735,34.242c-2.493-0.041-4.238-1.837-4.231-4.355
		c0.007-2.525,1.948-4.422,4.461-4.359c2.396,0.061,4.263,1.998,4.254,4.414C47.21,32.488,45.337,34.284,42.735,34.242z"/>
	<path fill-rule="evenodd" clip-rule="evenodd" fill="#48C2C5" d="M29.983,64.042c2.423-0.004,4.438,1.896,4.48,4.223
		c0.043,2.448-1.944,4.459-4.428,4.479c-2.477,0.02-4.477-1.978-4.44-4.435C25.632,65.874,27.511,64.047,29.983,64.042z"/>
	<path fill-rule="evenodd" clip-rule="evenodd" fill="#48C2C5" d="M29.948,34.23c-2.468-0.016-4.337-1.86-4.35-4.292
		c-0.012-2.455,2.016-4.454,4.477-4.41c2.472,0.044,4.457,2.096,4.387,4.534C34.395,32.382,32.378,34.245,29.948,34.23z"/>
</g>
</svg>
