<?xml version="1.0" encoding="utf-8"?>
<!-- Generator: Adobe Illustrator 18.1.1, SVG Export Plug-In . SVG Version: 6.00 Build 0)  -->
<!DOCTYPE svg PUBLIC "-//W3C//DTD SVG 1.1//EN" "http://www.w3.org/Graphics/SVG/1.1/DTD/svg11.dtd">
<svg version="1.1" id="Layer_1" xmlns="http://www.w3.org/2000/svg" xmlns:xlink="http://www.w3.org/1999/xlink" x="0px" y="0px"
	 viewBox="0 0 329.2 67.7" enable-background="new 0 0 329.2 67.7" xml:space="preserve">
<g>
	<g>
		<path fill="#4AAC48" d="M27,50.4c-12.7,0-23.1-8.9-23.1-22.5C3.9,14.1,14.3,5.4,27,5.4c7,0,12,2.7,15.4,6.4
			c0.7,0.8,1.1,1.8,1.1,2.8c0,2.3-2.1,4.2-4.4,4.2c-1.1,0-2.3-0.5-3.1-1.3c-2.5-2.4-5.7-3.8-9.1-3.8c-7.9,0-13.6,6.1-13.6,14.3
			S19.1,42.1,27,42.1c3.8,0,7.5-1.7,9.2-3.3v-5.2h-7.9c-2.2,0-4-1.8-4-4.1c0-2.2,1.8-4,4-4h11.9c2.9,0,5.2,2.3,5.2,5.2v7.4
			C45.5,46,35.8,50.4,27,50.4z"/>
		<path fill="#4AAC48" d="M68.6,50.3c-10.4,0-16.6-7.6-16.6-16.5c0-8.9,6.3-16.5,16.6-16.5c10.4,0,16.7,7.6,16.7,16.5
			C85.2,42.8,79,50.3,68.6,50.3z M68.6,24.7c-5.1,0-8,4.2-8,9.1c0,4.9,2.9,9.2,8,9.2c5.1,0,8.1-4.2,8.1-9.2
			C76.6,28.9,73.7,24.7,68.6,24.7z"/>
		<path fill="#4AAC48" d="M107.4,25.5c-2.5,0.3-4.9,1.4-6.4,3.3v17.1c0,2.3-1.8,4.1-4,4.1h-0.1c-2.3,0-4.1-1.8-4.1-4.1V21.8
			c0-2.2,1.8-4,4.2-4c2.2,0,4,1.8,4,4v0.7c1.6-2.1,3.6-4.6,6.8-4.6c2.4,0,3.6,1.5,3.6,3.4C111.3,23.7,109.6,25.1,107.4,25.5z"/>
		<path fill="#EF5423" d="M159.5,50c-1.5,0-2.7-1.2-2.7-2.7V13.8l-14.6,35.3c-0.2,0.5-0.7,0.8-1.4,0.8c-0.5,0-1-0.3-1.2-0.8
			l-14.5-35.3v33.5c0,1.5-1.2,2.7-2.7,2.7c-1.5,0-2.7-1.2-2.7-2.7V10.2c0-2.3,2-4.4,4.5-4.4c1.8,0,3.6,1,4.3,2.7l12.4,30.3
			l12.5-30.3c0.7-1.7,2.5-2.7,4.3-2.7c2.5,0,4.5,2,4.5,4.4v37.1C162.2,48.8,161,50,159.5,50z"/>
		<path fill="#EF5423" d="M184.6,50.3c-9.6,0-15.6-7.4-15.6-16.5c0-9.1,6-16.5,15.6-16.5s15.6,7.4,15.6,16.5
			C200.2,42.9,194.2,50.3,184.6,50.3z M184.6,21.7c-6.7,0-10.5,5.7-10.5,12.1c0,6.4,3.8,12.2,10.5,12.2c6.7,0,10.4-5.7,10.4-12.2
			C195,27.4,191.3,21.7,184.6,21.7z"/>
		<path fill="#EF5423" d="M231.8,50c-1.3,0-2.4-1.1-2.4-2.4V29c0-5.5-2.8-7.3-7-7.3c-3.8,0-7.5,2.3-9.3,4.9v21
			c0,1.3-1.1,2.4-2.5,2.4c-1.3,0-2.4-1.1-2.4-2.4V20.1c0-1.2,1.1-2.3,2.5-2.3c1.2,0,2.3,1.1,2.3,2.3v2.6c2.2-2.6,6.5-5.3,11.2-5.3
			c6.6,0,10,3.3,10,10.2v20.1C234.2,48.9,233.1,50,231.8,50z"/>
		<path fill="#EF5423" d="M239.6,62.3c-2.9,0-6.7-1-6.7-3.1c0-1.1,1-2,2.1-2c1,0,2.3,1,4,1c2.9,0,5.1-1.7,5.1-5.7V20.1
			c0-1.2,1.1-2.3,2.5-2.3c1.2,0,2.3,1.1,2.3,2.3v32.6C248.9,58.8,245.6,62.3,239.6,62.3z M249.7,10.4c0,1.8-1.6,3.3-3.3,3.3
			c-1.8,0-3.3-1.4-3.3-3.3s1.5-3.3,3.3-3.3C248.2,7,249.7,8.5,249.7,10.4z"/>
		<path fill="#EF5423" d="M286,35.4h-22.7c0.4,5.9,4.6,10.9,11.3,10.9c3,0,6-1,8.5-2.9c0.3-0.2,0.7-0.3,1.1-0.3c0.8,0,2,0.8,2,2
			c0,3.4-8.1,5.3-12,5.3c-9.3,0-16-6.7-16-16.5c0-9.1,6.5-16.5,15.5-16.5c7.8,0,13,4.9,14.6,12.2c0.2,1,0.5,2.1,0.5,3.3
			C288.7,34.2,287.5,35.4,286,35.4z M273.6,21.4c-6.7,0-10,5.7-10.3,10.5h20.6C283.8,27.2,280.7,21.4,273.6,21.4z"/>
		<path fill="#EF5423" d="M322.7,35.4h-22.7c0.4,5.9,4.6,10.9,11.3,10.9c3,0,6-1,8.5-2.9c0.3-0.2,0.7-0.3,1.1-0.3c0.8,0,2,0.8,2,2
			c0,3.4-8.1,5.3-12,5.3c-9.3,0-16-6.7-16-16.5c0-9.1,6.5-16.5,15.5-16.5c7.8,0,13,4.9,14.6,12.2c0.2,1,0.5,2.1,0.5,3.3
			C325.3,34.2,324.2,35.4,322.7,35.4z M310.2,21.4c-6.7,0-10,5.7-10.3,10.5h20.6C320.5,27.2,317.4,21.4,310.2,21.4z"/>
	</g>
</g>
</svg>
