<?xml version="1.0" encoding="utf-8"?>
<!-- Generator: Adobe Illustrator 18.1.1, SVG Export Plug-In . SVG Version: 6.00 Build 0)  -->
<!DOCTYPE svg PUBLIC "-//W3C//DTD SVG 1.1//EN" "http://www.w3.org/Graphics/SVG/1.1/DTD/svg11.dtd">
<svg version="1.1" id="Layer_1" xmlns="http://www.w3.org/2000/svg" xmlns:xlink="http://www.w3.org/1999/xlink" x="0px" y="0px"
	 viewBox="0 0 143.4 155.1" enable-background="new 0 0 143.4 155.1" xml:space="preserve">
<g>
	<path fill="#EF5423" d="M123.9,132.8c-14.1,14.1-25.7,17.5-40.8,17.5c-41.7,0-59.1-34.7-59.1-58.2c0-26.4,18.6-59.3,59-59.3
		c19.1,0,42.1,8.6,50,29c1.1,2.9-0.5,9-9.8,9c-18.4,0-21.6-13.6-40.5-13.6c-16.9,0-34.1,14.5-34.1,33.8s15.6,34.8,34.7,34.8
		c17.7,0,27.4-13.8,29.9-18.3c-4.7-2-9.3-2.8-13.1-2.8c-9.4,0-11.6,3.2-14.3,3.2c-2.7,0-4.1-3.3-4.1-6.3c0-3.4,3.5-19.4,35.1-19.4
		c9.6,0,14.7,1.3,17.9,4.6C144.5,96.7,138,118.7,123.9,132.8z"/>
	<path fill="#4AAC48" d="M27,17c10.6,0,16.4,4.9,19.3,10.6s3.1,8.7,2.9,8.8s-2.8-1-7-3.8S26.9,24.1,22,24.3
		c-4.7,0.2-1.7,1.3-0.5,1.3c1.9,0,13.4,5.6,16.2,7.6c2.9,2.1,7.4,5,7.3,6.6s-3.9,5.2-8.1,5s-8.9-2-16.6-8.4
		C12.6,29.9,6.3,25.4,5.3,25c-1-0.4-1.3-0.4-1.3-0.6C4.1,23.3,13.5,17,27,17z"/>
	<path fill="#4AAC48" d="M57,12c6.3-5,16.6-7.3,22.6-7.3c4,0,2.8,0.5,2,1.6c-0.8,1.1-8,16.4-12.5,21.5s-7.3,4.7-8.8,4.7
		c-1.5,0-3.8-0.5-3.8-1.4c0.1-1.7,1.3-4.6,5.9-10.7c5.7-7.7,8.5-8.3,8.3-8.9c-0.2-0.6-3.4-0.2-10.8,8.2c-4.2,4.8-2.8,4.8-7.6,10.7
		c-0.4,0.5-2.1-6-0.7-10.8S57,12,57,12z"/>
</g>
</svg>
