<?xml version="1.0" encoding="utf-8"?>
<!-- Generator: Adobe Illustrator 16.0.0, SVG Export Plug-In . SVG Version: 6.00 Build 0)  -->
<!DOCTYPE svg PUBLIC "-//W3C//DTD SVG 1.1//EN" "http://www.w3.org/Graphics/SVG/1.1/DTD/svg11.dtd">
<svg version="1.1" id="Capa_1" xmlns="http://www.w3.org/2000/svg" xmlns:xlink="http://www.w3.org/1999/xlink" x="0px" y="0px"
	 width="147.5px" height="144.164px" viewBox="-3.5 38.336 147.5 144.164" enable-background="new -3.5 38.336 147.5 144.164"
	 xml:space="preserve">
<g>
	<g>
		<path fill="#FFFFFF" d="M79.825,129.697l-8.938,23.275c-0.478,1.245-1.67,2.068-3,2.08c-0.011,0-0.02,0-0.031,0
			c-1.321,0-2.511-0.801-3.008-2.035L40.54,92.726l-8.707,17.911c-0.54,1.116-1.676,1.822-2.918,1.822H7.999
			c0.239,0.407,0.424,0.804,0.672,1.215l5.645,8.141c1.403,1.816,2.924,3.607,4.585,5.409
			c18.886,20.374,31.892,35.459,39.946,45.146c5.8,6.997,14.934,7.085,20.752,0.104c7.697-9.289,19.963-23.644,37.498-42.783
			L79.825,129.697L79.825,129.697z"/>
		<path fill="#FFFFFF" d="M103.804,38.336c-9.766,0.02-18.68,3.781-25.365,9.904c-6.688,6.174-12.024,6.174-18.749,0.034
			c-6.708-6.106-15.605-9.836-25.389-9.8C19.213,38.488,6.228,47.386,0.259,60.2c-3.832,8.248-3.252,23.401-0.807,32.164
			c1.169,4.191,2.904,8.965,5.296,13.966c0.43-0.211,0.899-0.354,1.414-0.354h20.73L37.908,83.32c0.562-1.153,1.892-1.9,3.028-1.819
			c1.285,0.045,2.417,0.837,2.901,2.027l23.958,59.425l6.778-17.658c0.482-1.251,1.686-2.077,3.029-2.077h41.912
			c0.873,0,1.664,0.354,2.246,0.913c0.992-1.352,2.172-2.996,3.348-4.645c3.043-4.223,9.34-14.011,12.279-22.613
			c4.113-12.078,4.113-20.978,4.113-20.978C141.46,55.103,124.571,38.286,103.804,38.336z"/>
	</g>
</g>
</svg>
