<?xml version="1.0" encoding="utf-8"?>
<!-- Generator: Adobe Illustrator 16.0.0, SVG Export Plug-In . SVG Version: 6.00 Build 0)  -->
<!DOCTYPE svg PUBLIC "-//W3C//DTD SVG 1.1//EN" "http://www.w3.org/Graphics/SVG/1.1/DTD/svg11.dtd">
<svg version="1.1" id="Layer_1" xmlns="http://www.w3.org/2000/svg" xmlns:xlink="http://www.w3.org/1999/xlink" x="0px" y="0px"
	 width="646.7px" height="101.895px" viewBox="0 0 646.7 101.895" enable-background="new 0 0 646.7 101.895" xml:space="preserve">
<g>
	<path fill="#FFFFFF" d="M206.617,20.862c-0.648,1.738-1.307,3.474-1.944,5.216c-7.228,19.747-14.458,39.492-21.66,59.249
		c-0.292,0.8-0.642,1.153-1.522,1.069c-1.107-0.104-2.522,0.321-3.258-0.223c-0.729-0.538-0.801-1.989-1.121-3.052
		c-8.136-27.046-16.268-54.093-24.397-81.141c-0.091-0.301-0.154-0.609-0.256-1.019c3.751,0,7.421,0.013,11.09-0.01
		c0.738-0.004,0.667,0.54,0.788,0.965c1.757,6.169,3.511,12.339,5.263,18.51c4.406,15.523,8.811,31.048,13.218,46.571
		c0.086,0.304,0.199,0.6,0.302,0.908c0.576-0.089,0.489-0.609,0.601-0.929c6.271-17.89,12.522-35.786,18.777-53.682
		c1.328-3.797,2.688-7.584,3.967-11.398c0.251-0.75,0.581-0.966,1.339-0.955c2.389,0.035,2.388,0.004,3.229,2.22
		c8.031,21.146,16.061,42.295,24.106,63.437c0.143,0.375,0.127,0.891,0.759,1.134c0.546-2.006,1.096-3.982,1.625-5.968
		c5.289-19.832,10.584-39.662,15.837-59.503c0.273-1.034,0.658-1.391,1.747-1.331c1.951,0.108,3.912,0.03,5.996,0.03
		c-0.875,3.029-1.712,5.967-2.57,8.898c-7.322,25.047-14.655,50.091-21.945,75.146c-0.308,1.061-0.687,1.553-1.837,1.388
		c-1.053-0.149-2.366,0.399-3.129-0.215c-0.703-0.566-0.864-1.823-1.228-2.79c-7.7-20.507-15.396-41.015-23.093-61.522
		c-0.123-0.326-0.26-0.647-0.391-0.971C206.812,20.887,206.714,20.875,206.617,20.862z"/>
	<path fill="#FFFFFF" d="M325.622,39.863c1.416,0.321,2.84,0.609,4.246,0.969c5.121,1.308,9.863,3.387,13.938,6.841
		c9.621,8.156,8.229,21.898,0.947,29.36c-4.369,4.479-9.834,6.828-15.818,8.152c-3.832,0.85-7.721,1.2-11.646,1.195
		c-7.677-0.008-15.354-0.016-23.03,0.017c-0.855,0.004-1.15-0.146-1.149-1.091c0.028-27.789,0.026-55.578,0.006-83.368
		c0-0.764,0.17-0.998,0.972-0.994c8.996,0.04,17.995-0.094,26.987,0.092c6.229,0.128,12.153,1.65,17.43,5.184
		c7.836,5.247,9.449,14.406,6.285,21.283c-1.943,4.22-5.396,6.937-9.443,8.984C332.276,38.042,329.006,39.003,325.622,39.863z
		 M304.695,61.735c0,5.919,0.017,11.839-0.019,17.757c-0.005,0.854,0.175,1.166,1.096,1.212c2.191,0.108,4.372,0.426,6.562,0.553
		c4.152,0.24,8.31,0.378,12.401-0.609c6.07-1.463,10.576-4.761,12.553-10.915c1.199-3.736,1.121-7.578,0.525-11.39
		c-0.766-4.891-2.926-9.004-7.221-11.758c-3.414-2.19-7.239-3.076-11.217-3.382c-4.589-0.354-9.191-0.075-13.786-0.191
		c-0.951-0.024-0.9,0.448-0.899,1.089C304.699,49.979,304.695,55.856,304.695,61.735z M304.695,22.605
		c0,4.835,0.031,9.67-0.026,14.504c-0.012,0.979,0.296,1.165,1.194,1.148c2.917-0.055,5.833-0.021,8.75-0.021
		c2.44-0.001,4.862-0.209,7.238-0.782c5.717-1.382,10.049-4.366,11.819-10.286c0.791-2.646,0.783-5.354,0.566-8.064
		c-0.578-7.18-5.217-11.993-12.349-12.89c-5.479-0.689-10.908-0.066-16.341,0.568c-0.711,0.083-0.876,0.387-0.872,1.078
		C304.71,12.776,304.695,17.691,304.695,22.605z"/>
	<path fill="#FFFFFF" d="M480.825,0.964c4.365,0,8.512,0.009,12.656-0.012c0.508-0.002,0.674,0.333,0.922,0.633
		c11.287,13.688,22.574,27.379,33.863,41.066c5.771,6.998,11.545,13.995,17.318,20.99c0.199,0.24,0.414,0.465,0.676,0.755
		c0.289-0.465,0.158-0.908,0.158-1.315c0.01-20.277,0.016-40.555-0.016-60.831c-0.002-1.018,0.178-1.388,1.279-1.316
		c1.713,0.111,3.438,0.049,5.156,0.019c0.568-0.011,0.814,0.152,0.74,0.738c-0.033,0.275-0.006,0.56-0.006,0.839
		c0,27.396,0,54.792,0,82.188c0,1.661-0.008,1.557-1.611,1.691c-1.506,0.126-2.436-0.402-3.389-1.589
		c-17.66-22.003-35.373-43.965-53.082-65.929c-0.205-0.254-0.348-0.771-0.77-0.601c-0.389,0.157-0.178,0.637-0.178,0.966
		c-0.01,21.876-0.021,43.753,0.023,65.629c0.004,1.301-0.379,1.594-1.578,1.518c-1.596-0.103-3.199-0.052-4.799-0.013
		c-0.623,0.017-0.893-0.165-0.811-0.807c0.035-0.275,0.006-0.56,0.006-0.839c0-24.756-0.002-49.513,0.016-74.269
		c0-0.799-0.18-1.422-0.695-2.057C484.766,6.034,482.891,3.595,480.825,0.964z"/>
	<path fill="#FFFFFF" d="M417.67,0c14.387,0.665,26.559,8.088,34.438,22.205c8.957,16.047,6.832,36.679-4.994,50.676
		c-6.891,8.153-15.65,13.187-26.311,14.14c-15.943,1.425-28.441-4.993-37.641-17.894c-4.789-6.715-7.312-14.339-7.654-22.578
		c-0.688-16.537,5.266-30.042,18.867-39.783C400.741,2.208,407.989,0.068,417.67,0z M416.354,82.365
		c5.209-0.005,8.938-0.775,12.424-2.514c6.367-3.173,10.426-8.401,13-14.888c2.559-6.446,3.307-13.182,3.195-20.071
		c-0.086-5.342-0.732-10.589-2.258-15.708c-2.248-7.553-5.992-14.173-12.324-19.089c-9.246-7.181-21.754-7.123-30.658,0.172
		c-5.299,4.341-8.322,10.124-10.043,16.627c-2.234,8.441-2.283,16.986-0.836,25.551c1.166,6.897,3.521,13.346,7.846,18.929
		C402,78.217,408.852,82.187,416.354,82.365z"/>
	<path fill="#FFFFFF" d="M91.976,0.964c3.86,0,7.573,0.013,11.287-0.011c0.708-0.004,0.69,0.525,0.852,0.938
		c2.788,7.12,5.574,14.241,8.356,21.363c8.058,20.626,16.114,41.253,24.17,61.88c0.485,1.243,0.485,1.244-0.87,1.244
		c-3.24,0.001-6.48-0.044-9.719,0.028c-0.946,0.021-1.282-0.345-1.591-1.155c-3.809-9.972-7.667-19.924-11.472-29.896
		c-0.358-0.938-0.765-1.319-1.852-1.313c-9.319,0.058-18.639,0.049-27.958,0.01c-0.945-0.004-1.369,0.238-1.696,1.164
		c-3.56,10.062-7.184,20.104-10.755,30.165c-0.268,0.755-0.573,1.058-1.413,1.021c-1.875-0.076-3.756-0.022-5.786-0.022
		c1.073-2.828,2.106-5.57,3.155-8.309C75.687,54.565,84.691,31.06,93.716,7.562c0.277-0.722,0.31-1.34,0.014-2.053
		C93.124,4.046,92.584,2.554,91.976,0.964z M97.077,49.037c4.079,0,8.157-0.014,12.235,0.012c0.779,0.005,1.176,0.013,0.785-0.996
		c-4.273-11.021-8.5-22.06-12.756-33.088c-0.115-0.298-0.074-0.844-0.541-0.816c-0.428,0.026-0.4,0.544-0.517,0.861
		c-4.05,11.024-8.08,22.055-12.148,33.072c-0.318,0.859-0.106,0.977,0.707,0.97C88.919,49.021,92.998,49.037,97.077,49.037z"/>
	<path fill="#FFFFFF" d="M590.829,43.563c0-13.8,0.012-27.599-0.027-41.397c-0.002-1.016,0.266-1.228,1.246-1.226
		c16.92,0.033,33.84,0.033,50.758,0c1.008-0.002,1.309,0.259,1.227,1.253c-0.094,1.152-0.051,2.319-0.01,3.479
		c0.021,0.646-0.213,0.808-0.836,0.787c-9.738-0.321-19.479-0.627-29.217-0.924c-3.596-0.109-7.189-0.163-10.783-0.293
		c-0.775-0.029-0.906,0.229-0.904,0.939c0.02,10.839,0.029,21.679-0.012,32.519c-0.004,1.001,0.459,0.94,1.146,0.939
		c10.32-0.012,20.639,0.013,30.959-0.039c1.141-0.006,1.422,0.337,1.324,1.385c-0.084,0.912-0.07,1.844,0,2.758
		c0.059,0.749-0.18,0.928-0.92,0.921c-4.48-0.038-8.959-0.02-13.439-0.02c-6,0-12,0.017-17.998-0.019
		c-0.807-0.005-1.072,0.144-1.068,1.021c0.033,11.799,0.037,23.599-0.006,35.398c-0.004,0.989,0.352,1.072,1.158,1.051
		c7.666-0.205,15.334-0.377,23-0.562c6.432-0.155,12.859-0.305,19.289-0.485c0.766-0.021,1.082,0.123,0.959,0.971
		c-0.162,1.104-0.232,2.224-0.285,3.338c-0.033,0.782-0.314,1.05-1.145,1.042c-4.92-0.044-9.84-0.021-14.76-0.021
		c-12.801,0-25.6-0.018-38.398,0.03c-1.104,0.004-1.285-0.314-1.281-1.328C590.838,71.242,590.829,57.402,590.829,43.563z"/>
	<path fill="#FFFFFF" d="M31.67,37.442c0,10.601-0.172,21.202,0.053,31.796c0.189,8.881-3.282,15.739-10.227,21.061
		c-6.292,4.821-13.356,8.239-20.525,11.48c-0.559,0.254-0.71,0.081-0.739-0.435c-0.002-0.04-0.007-0.079-0.013-0.119
		c-0.442-2.964-0.426-2.938,2.087-4.599c3.565-2.354,7.077-4.778,10.471-7.384c5.095-3.91,7.452-8.934,7.421-15.404
		c-0.114-23.837-0.039-47.675-0.067-71.512c-0.001-1.037,0.176-1.432,1.332-1.396C24.5,1.025,27.542,1,30.581,0.939
		c0.893-0.018,1.114,0.201,1.112,1.106C31.658,13.845,31.67,25.644,31.67,37.442z"/>
</g>
</svg>
