<?xml version="1.0" encoding="utf-8"?>
<!-- Generator: Adobe Illustrator 16.0.0, SVG Export Plug-In . SVG Version: 6.00 Build 0)  -->
<!DOCTYPE svg PUBLIC "-//W3C//DTD SVG 1.1//EN" "http://www.w3.org/Graphics/SVG/1.1/DTD/svg11.dtd">
<svg version="1.1" id="Layer_1" xmlns="http://www.w3.org/2000/svg" xmlns:xlink="http://www.w3.org/1999/xlink" x="0px" y="0px"
	 width="266.569px" height="91.778px" viewBox="0 0 266.569 91.778" enable-background="new 0 0 266.569 91.778"
	 xml:space="preserve">
<g>
	<path fill="#FFFFFF" d="M72.48,50.865c-15.856,4.124-28.639,3.567-35.873-1.667C17.953,35.542,32.194,8.165,37.256,0
		C28.142,9.99,19.08,20.011,12.007,30.942C0.86,48.016-3.867,66.747,3.653,78.755c13.483,21.676,45.893,11.673,66.557,2.956
		L261.914,0.81L72.48,50.865z M257.375,58.779h-17.963c-1.484,0-2.488-1.196-2.222-2.667l3.098-17.447
		c0.256-1.457-0.748-2.667-2.251-2.667h-4.241c-1.49,0-2.921,1.21-3.162,2.667l-3.125,17.447c-0.244,1.472-1.68,2.667-3.159,2.667
		h-17.434c-1.472,0-3.12,1.176-3.395,2.607l-0.698,4.257c-0.325,1.653,0.483,2.596,1.974,2.596h17.884
		c1.484,0,2.478,1.193,2.209,2.667l-3.129,17.781c-0.278,1.461,0.723,2.668,2.205,2.668h4.287c1.48,0,2.9-1.207,3.167-2.668
		l3.139-17.781c0.279-1.474,1.697-2.667,3.169-2.667h17.454c1.484,0,3.131-0.885,3.438-2.596l0.74-4.257
		C259.651,59.841,258.865,58.779,257.375,58.779"/>
</g>
<path fill="#EF3E42" d="M632.054,158.42c-2.607,0.678-4.709,0.586-5.898-0.274c-3.067-2.245-0.726-6.747,0.106-8.089
	c-1.498,1.643-2.988,3.29-4.151,5.088c-1.832,2.807-2.61,5.887-1.373,7.861c2.217,3.563,7.546,1.919,10.942,0.485l31.521-13.302
	L632.054,158.42z"/>
<g>
	<path fill="#EF3E42" d="M694.196,153.363c-1.116-1.055-2.066-2.104-4.093-2.193c-1.646-0.074-2.368,0.923-3.915,0.955
		c-1.4,0.026-1.307-1.121-4.237-0.803c-2.583,0.281-4.82,2.857-4.644,6.433c0.189,3.87,2.89,9.237,5.405,9.229
		c1.773-0.004,2.212-0.887,3.658-0.885c1.826,0,2.243,1.087,3.672,0.873c2.46-0.367,4.762-4.243,4.742-5.49
		c-1.326-0.712-2.7-1.898-2.848-3.929S693.018,154.238,694.196,153.363"/>
	<path fill="#EF3E42" d="M685.701,151.432c-0.176-1.398,0.784-4.508,4.163-4.975C690.257,148.844,688.297,151.587,685.701,151.432"
		/>
</g>
</svg>
