<?xml version="1.0" encoding="utf-8"?>
<!-- Generator: Adobe Illustrator 16.0.0, SVG Export Plug-In . SVG Version: 6.00 Build 0)  -->
<!DOCTYPE svg PUBLIC "-//W3C//DTD SVG 1.1//EN" "http://www.w3.org/Graphics/SVG/1.1/DTD/svg11.dtd">
<svg version="1.1" id="Capa_1" xmlns="http://www.w3.org/2000/svg" xmlns:xlink="http://www.w3.org/1999/xlink" x="0px" y="0px"
	 width="45.598px" height="45.598px" viewBox="0 0 45.598 45.598" enable-background="new 0 0 45.598 45.598" xml:space="preserve">
<g>
	<g>
		<path fill="#FCFCFC" d="M36.32,19.356c-1.711-2.401-4.03-4.271-6.713-5.461v-3.169h0.816c2.258,0,4.067-1.869,4.067-4.126V4.05
			c0-2.258-1.811-4.05-4.067-4.05h-15.27c-2.257,0-4.125,1.792-4.125,4.05V6.6c0,2.257,1.868,4.126,4.125,4.126h0.759v3.187
			c-5.842,2.685-9.707,8.593-9.707,15.104c0,9.145,7.452,16.582,16.605,16.582c9.146,0,16.58-7.438,16.58-16.582
			C39.391,25.507,38.322,22.165,36.32,19.356z M22.816,41.737c-7.026,0-12.743-5.707-12.743-12.722
			c0-5.351,3.37-10.171,8.417-11.994c0.765-0.276,1.253-1.003,1.253-1.815V8.429c0-0.885-0.674-1.629-1.56-1.629h-2.609
			c-0.357,0-0.619-0.263-0.619-0.62V4.47c0-0.357,0.262-0.638,0.619-0.638h14.429c0.357,0,0.658,0.28,0.658,0.638v1.71
			c0,0.357-0.301,0.62-0.658,0.62h-2.606c-0.887,0-1.619,0.745-1.619,1.629v6.778c0,0.82,0.528,1.553,1.305,1.822
			c5.137,1.785,8.458,6.489,8.458,11.985C35.54,36.03,29.833,41.737,22.816,41.737z"/>
		<circle fill="#FCFCFC" cx="26.025" cy="24.556" r="2.212"/>
		<circle fill="#FCFCFC" cx="22.091" cy="19.657" r="1.253"/>
		<path fill="#FCFCFC" d="M21.943,28.508c0-1.974-1.602-3.576-3.575-3.576c-1.975,0-3.576,1.604-3.576,3.576
			c0,0.344,0.049,0.701,0.14,0.988h-2.955c0.206,5.842,4.97,10.463,10.831,10.463c5.862,0,10.626-4.622,10.832-10.463H21.804
			C21.895,29.209,21.943,28.852,21.943,28.508z"/>
	</g>
</g>
</svg>
